<svg width="1200" height="900" viewBox="0 0 1200 900" fill="none" xmlns="http://www.w3.org/2000/svg">
  <rect width="1200" height="900" rx="56" fill="#EEF4FB"/>
  <rect x="36" y="36" width="1128" height="828" rx="42" fill="white"/>
  <circle cx="934" cy="176" r="98" fill="#DBE7F4"/>
  <rect x="126" y="126" width="602" height="350" rx="36" fill="url(#deliveryBoard)"/>
  <rect x="170" y="170" width="238" height="38" rx="19" fill="white" fill-opacity="0.24"/>
  <rect x="170" y="238" width="514" height="164" rx="28" fill="white" fill-opacity="0.16"/>
  <rect x="738" y="150" width="314" height="284" rx="32" fill="#F5F8FC" stroke="#DBE7F4" stroke-width="8"/>
  <rect x="778" y="190" width="194" height="38" rx="19" fill="#DBE7F4"/>
  <rect x="778" y="256" width="234" height="34" rx="17" fill="#0F61C4"/>
  <rect x="778" y="312" width="180" height="28" rx="14" fill="#173860"/>
  <rect x="778" y="360" width="152" height="24" rx="12" fill="#DBE7F4"/>
  <rect x="144" y="522" width="920" height="198" rx="36" fill="#F5F8FC" stroke="#DBE7F4" stroke-width="8"/>
  <circle cx="246" cy="556" r="42" fill="#173860"/>
  <rect x="208" y="596" width="76" height="90" rx="28" fill="#0F61C4"/>
  <rect x="186" y="646" width="120" height="24" rx="12" fill="#173860"/>
  <circle cx="468" cy="566" r="30" fill="#0F61C4"/>
  <rect x="438" y="596" width="60" height="70" rx="24" fill="#FFFFFF"/>
  <circle cx="604" cy="566" r="30" fill="#0F61C4"/>
  <rect x="574" y="596" width="60" height="70" rx="24" fill="#FFFFFF"/>
  <circle cx="740" cy="566" r="30" fill="#0F61C4"/>
  <rect x="710" y="596" width="60" height="70" rx="24" fill="#FFFFFF"/>
  <rect x="840" y="558" width="170" height="98" rx="26" fill="url(#teacherCard)"/>
  <rect x="882" y="586" width="86" height="12" rx="6" fill="white"/>
  <rect x="882" y="612" width="68" height="12" rx="6" fill="white" fill-opacity="0.72"/>
  <defs>
    <linearGradient id="deliveryBoard" x1="126" y1="126" x2="728" y2="476" gradientUnits="userSpaceOnUse">
      <stop stop-color="#0F61C4"/>
      <stop offset="1" stop-color="#0A4C96"/>
    </linearGradient>
    <linearGradient id="teacherCard" x1="840" y1="558" x2="1010" y2="656" gradientUnits="userSpaceOnUse">
      <stop stop-color="#173860"/>
      <stop offset="1" stop-color="#0F61C4"/>
    </linearGradient>
  </defs>
</svg>
