<svg width="1200" height="900" viewBox="0 0 1200 900" fill="none" xmlns="http://www.w3.org/2000/svg">
  <rect width="1200" height="900" rx="56" fill="#EEF4FB"/>
  <rect x="36" y="36" width="1128" height="828" rx="42" fill="white"/>
  <circle cx="930" cy="166" r="92" fill="#DBE7F4"/>
  <circle cx="228" cy="742" r="94" fill="#F5F8FC"/>
  <circle cx="600" cy="434" r="152" fill="#0F61C4"/>
  <circle cx="600" cy="434" r="106" fill="#0A4C96"/>
  <circle cx="600" cy="434" r="48" fill="white"/>
  <circle cx="600" cy="178" r="42" fill="#173860"/>
  <circle cx="328" cy="300" r="42" fill="#0F61C4"/>
  <circle cx="320" cy="590" r="42" fill="#173860"/>
  <circle cx="872" cy="300" r="42" fill="#0F61C4"/>
  <circle cx="880" cy="590" r="42" fill="#173860"/>
  <path d="M600 392V220" stroke="#DBE7F4" stroke-width="18" stroke-linecap="round"/>
  <path d="M512 402L366 320" stroke="#DBE7F4" stroke-width="18" stroke-linecap="round"/>
  <path d="M510 468L360 570" stroke="#DBE7F4" stroke-width="18" stroke-linecap="round"/>
  <path d="M688 402L834 320" stroke="#DBE7F4" stroke-width="18" stroke-linecap="round"/>
  <path d="M690 468L840 570" stroke="#DBE7F4" stroke-width="18" stroke-linecap="round"/>
  <rect x="148" y="652" width="232" height="110" rx="30" fill="#F5F8FC" stroke="#DBE7F4" stroke-width="8"/>
  <rect x="486" y="690" width="228" height="34" rx="17" fill="#DBE7F4"/>
  <rect x="820" y="652" width="232" height="110" rx="30" fill="#F5F8FC" stroke="#DBE7F4" stroke-width="8"/>
</svg>
