<svg width="1200" height="900" viewBox="0 0 1200 900" fill="none" xmlns="http://www.w3.org/2000/svg">
  <rect width="1200" height="900" rx="56" fill="#EEF4FB"/>
  <rect x="36" y="36" width="1128" height="828" rx="42" fill="white"/>
  <rect x="114" y="158" width="330" height="560" rx="42" fill="#F5F8FC" stroke="#DBE7F4" stroke-width="8"/>
  <rect x="166" y="216" width="226" height="392" rx="34" fill="url(#appPhone)"/>
  <rect x="220" y="268" width="118" height="22" rx="11" fill="white"/>
  <rect x="220" y="320" width="118" height="146" rx="26" fill="white" fill-opacity="0.16"/>
  <rect x="220" y="496" width="118" height="52" rx="18" fill="white"/>
  <rect x="516" y="126" width="528" height="296" rx="36" fill="#F5F8FC" stroke="#DBE7F4" stroke-width="8"/>
  <rect x="568" y="178" width="180" height="36" rx="18" fill="#DBE7F4"/>
  <rect x="568" y="240" width="430" height="138" rx="28" fill="#0F61C4"/>
  <rect x="516" y="488" width="528" height="228" rx="36" fill="url(#appPanels)"/>
  <rect x="566" y="538" width="132" height="132" rx="28" fill="white"/>
  <rect x="734" y="538" width="262" height="28" rx="14" fill="white" fill-opacity="0.82"/>
  <rect x="734" y="588" width="206" height="22" rx="11" fill="white" fill-opacity="0.52"/>
  <rect x="734" y="628" width="168" height="22" rx="11" fill="white" fill-opacity="0.36"/>
  <defs>
    <linearGradient id="appPhone" x1="166" y1="216" x2="392" y2="608" gradientUnits="userSpaceOnUse">
      <stop stop-color="#0F61C4"/>
      <stop offset="1" stop-color="#0A4C96"/>
    </linearGradient>
    <linearGradient id="appPanels" x1="516" y1="488" x2="1044" y2="716" gradientUnits="userSpaceOnUse">
      <stop stop-color="#173860"/>
      <stop offset="1" stop-color="#0F61C4"/>
    </linearGradient>
  </defs>
</svg>
